<svg xmlns="http://www.w3.org/2000/svg" viewBox="0 0 1280 400" width="100%" role="img" aria-label="neurophase — Kuramoto phase synchronization animation" style="max-width:100%;height:auto;font-family:ui-monospace,SFMono-Regular,Menlo,monospace">

<defs>
  <radialGradient id="disc-glow" cx="50%" cy="50%" r="50%">
    <stop offset="0%" stop-color="#1F5082" stop-opacity="0.22"/>
    <stop offset="55%" stop-color="#1F5082" stop-opacity="0.06"/>
    <stop offset="100%" stop-color="#0B0F1A" stop-opacity="0"/>
  </radialGradient>
  <linearGradient id="trace-grad" x1="0" x2="1" y1="0" y2="0">
    <stop offset="0%" stop-color="#8B3FBF" stop-opacity="0.0"/>
    <stop offset="10%" stop-color="#8B3FBF" stop-opacity="0.9"/>
    <stop offset="100%" stop-color="#00C853" stop-opacity="0.95"/>
  </linearGradient>
  <filter id="soft-glow" x="-50%" y="-50%" width="200%" height="200%">
    <feGaussianBlur stdDeviation="2.4" result="b"/>
    <feMerge><feMergeNode in="b"/><feMergeNode in="SourceGraphic"/></feMerge>
  </filter>
</defs>

<rect width="1280" height="400" fill="#0B0F1A"/>
<line x1="60" y1="34" x2="1220" y2="34" stroke="#16203A" stroke-width="1"/>
<text x="60" y="24" fill="#E8EAED" font-size="13" font-weight="600" letter-spacing="3">NEUROPHASE</text>
<text x="1220" y="24" fill="#9AA3B2" font-size="11" text-anchor="end" letter-spacing="2">KURAMOTO · R(t) · GATE</text>
<circle cx="220" cy="200" r="148" fill="url(#disc-glow)"/>
<circle cx="220" cy="200" r="120" fill="none" stroke="#16203A" stroke-width="1"/>
<line x1="92" y1="200" x2="348" y2="200" stroke="#16203A" stroke-width="0.6" stroke-dasharray="2 4"/>
<line x1="220" y1="72" x2="220" y2="328" stroke="#16203A" stroke-width="0.6" stroke-dasharray="2 4"/>
<circle r="5.2" fill="#1F5082" opacity="0.95" filter="url(#soft-glow)"><animate attributeName="cx" values="339.25;234.84;123.569;109.636;339.25" keyTimes="0;0.22;0.5;0.78;1" dur="9.0s" repeatCount="indefinite" calcMode="spline" keySplines="0.4 0 0.2 1;0.4 0 0.2 1;0.4 0 0.2 1;0.4 0 0.2 1"/><animate attributeName="cy" values="213.396;319.079;271.422;152.886;213.396" keyTimes="0;0.22;0.5;0.78;1" dur="9.0s" repeatCount="indefinite" calcMode="spline" keySplines="0.4 0 0.2 1;0.4 0 0.2 1;0.4 0 0.2 1;0.4 0 0.2 1"/><animate attributeName="fill" values="#3A4A66;#1F5082;#3A4A66;#1F5082;#3A4A66" keyTimes="0;0.22;0.5;0.78;1" dur="9.0s" repeatCount="indefinite"/></circle>
<circle r="5.2" fill="#1F5082" opacity="0.95" filter="url(#soft-glow)"><animate attributeName="cx" values="322.212;228.144;102.462;115.896;322.212" keyTimes="0;0.22;0.5;0.78;1" dur="9.0s" repeatCount="indefinite" calcMode="spline" keySplines="0.4 0 0.2 1;0.4 0 0.2 1;0.4 0 0.2 1;0.4 0 0.2 1"/><animate attributeName="cy" values="262.87;319.723;224.184;140.314;262.87" keyTimes="0;0.22;0.5;0.78;1" dur="9.0s" repeatCount="indefinite" calcMode="spline" keySplines="0.4 0 0.2 1;0.4 0 0.2 1;0.4 0 0.2 1;0.4 0 0.2 1"/><animate attributeName="fill" values="#3A4A66;#1F5082;#3A4A66;#1F5082;#3A4A66" keyTimes="0;0.22;0.5;0.78;1" dur="9.0s" repeatCount="indefinite"/></circle>
<circle r="5.2" fill="#1F5082" opacity="0.95" filter="url(#soft-glow)"><animate attributeName="cx" values="289.71;224.748;150.449;115.93;289.71" keyTimes="0;0.22;0.5;0.78;1" dur="9.0s" repeatCount="indefinite" calcMode="spline" keySplines="0.4 0 0.2 1;0.4 0 0.2 1;0.4 0 0.2 1;0.4 0 0.2 1"/><animate attributeName="cy" values="297.676;319.906;297.789;140.256;297.676" keyTimes="0;0.22;0.5;0.78;1" dur="9.0s" repeatCount="indefinite" calcMode="spline" keySplines="0.4 0 0.2 1;0.4 0 0.2 1;0.4 0 0.2 1;0.4 0 0.2 1"/><animate attributeName="fill" values="#3A4A66;#1F5082;#3A4A66;#1F5082;#3A4A66" keyTimes="0;0.22;0.5;0.78;1" dur="9.0s" repeatCount="indefinite"/></circle>
<circle r="5.2" fill="#1F5082" opacity="0.95" filter="url(#soft-glow)"><animate attributeName="cx" values="253.804;222.923;150.67;118.895;253.804" keyTimes="0;0.22;0.5;0.78;1" dur="9.0s" repeatCount="indefinite" calcMode="spline" keySplines="0.4 0 0.2 1;0.4 0 0.2 1;0.4 0 0.2 1;0.4 0 0.2 1"/><animate attributeName="cy" values="315.14;319.964;297.945;135.364;315.14" keyTimes="0;0.22;0.5;0.78;1" dur="9.0s" repeatCount="indefinite" calcMode="spline" keySplines="0.4 0 0.2 1;0.4 0 0.2 1;0.4 0 0.2 1;0.4 0 0.2 1"/><animate attributeName="fill" values="#3A4A66;#1F5082;#3A4A66;#1F5082;#3A4A66" keyTimes="0;0.22;0.5;0.78;1" dur="9.0s" repeatCount="indefinite"/></circle>
<circle r="5.2" fill="#1F5082" opacity="0.95" filter="url(#soft-glow)"><animate attributeName="cx" values="183.214;200.875;142.672;109.136;183.214" keyTimes="0;0.22;0.5;0.78;1" dur="9.0s" repeatCount="indefinite" calcMode="spline" keySplines="0.4 0 0.2 1;0.4 0 0.2 1;0.4 0 0.2 1;0.4 0 0.2 1"/><animate attributeName="cy" values="314.222;318.466;291.762;154.073;314.222" keyTimes="0;0.22;0.5;0.78;1" dur="9.0s" repeatCount="indefinite" calcMode="spline" keySplines="0.4 0 0.2 1;0.4 0 0.2 1;0.4 0 0.2 1;0.4 0 0.2 1"/><animate attributeName="fill" values="#3A4A66;#1F5082;#3A4A66;#1F5082;#3A4A66" keyTimes="0;0.22;0.5;0.78;1" dur="9.0s" repeatCount="indefinite"/></circle>
<circle r="5.2" fill="#1F5082" opacity="0.95" filter="url(#soft-glow)"><animate attributeName="cx" values="146.289;234.833;104.522;113.7;146.289" keyTimes="0;0.22;0.5;0.78;1" dur="9.0s" repeatCount="indefinite" calcMode="spline" keySplines="0.4 0 0.2 1;0.4 0 0.2 1;0.4 0 0.2 1;0.4 0 0.2 1"/><animate attributeName="cy" values="294.693;319.08;232.633;144.32;294.693" keyTimes="0;0.22;0.5;0.78;1" dur="9.0s" repeatCount="indefinite" calcMode="spline" keySplines="0.4 0 0.2 1;0.4 0 0.2 1;0.4 0 0.2 1;0.4 0 0.2 1"/><animate attributeName="fill" values="#3A4A66;#1F5082;#3A4A66;#1F5082;#3A4A66" keyTimes="0;0.22;0.5;0.78;1" dur="9.0s" repeatCount="indefinite"/></circle>
<circle r="5.2" fill="#1F5082" opacity="0.95" filter="url(#soft-glow)"><animate attributeName="cx" values="111.414;218.914;104.111;111.1;111.414" keyTimes="0;0.22;0.5;0.78;1" dur="9.0s" repeatCount="indefinite" calcMode="spline" keySplines="0.4 0 0.2 1;0.4 0 0.2 1;0.4 0 0.2 1;0.4 0 0.2 1"/><animate attributeName="cy" values="251.079;319.995;231.142;149.594;251.079" keyTimes="0;0.22;0.5;0.78;1" dur="9.0s" repeatCount="indefinite" calcMode="spline" keySplines="0.4 0 0.2 1;0.4 0 0.2 1;0.4 0 0.2 1;0.4 0 0.2 1"/><animate attributeName="fill" values="#3A4A66;#1F5082;#3A4A66;#1F5082;#3A4A66" keyTimes="0;0.22;0.5;0.78;1" dur="9.0s" repeatCount="indefinite"/></circle>
<circle r="5.2" fill="#1F5082" opacity="0.95" filter="url(#soft-glow)"><animate attributeName="cx" values="100.007;225.792;128.245;108.383;100.007" keyTimes="0;0.22;0.5;0.78;1" dur="9.0s" repeatCount="indefinite" calcMode="spline" keySplines="0.4 0 0.2 1;0.4 0 0.2 1;0.4 0 0.2 1;0.4 0 0.2 1"/><animate attributeName="cy" values="201.296;319.86;277.337;155.935;201.296" keyTimes="0;0.22;0.5;0.78;1" dur="9.0s" repeatCount="indefinite" calcMode="spline" keySplines="0.4 0 0.2 1;0.4 0 0.2 1;0.4 0 0.2 1;0.4 0 0.2 1"/><animate attributeName="fill" values="#3A4A66;#1F5082;#3A4A66;#1F5082;#3A4A66" keyTimes="0;0.22;0.5;0.78;1" dur="9.0s" repeatCount="indefinite"/></circle>
<circle r="5.2" fill="#1F5082" opacity="0.95" filter="url(#soft-glow)"><animate attributeName="cx" values="109.569;211.217;107.202;109.593;109.569" keyTimes="0;0.22;0.5;0.78;1" dur="9.0s" repeatCount="indefinite" calcMode="spline" keySplines="0.4 0 0.2 1;0.4 0 0.2 1;0.4 0 0.2 1;0.4 0 0.2 1"/><animate attributeName="cy" values="153.043;319.678;240.947;152.987;153.043" keyTimes="0;0.22;0.5;0.78;1" dur="9.0s" repeatCount="indefinite" calcMode="spline" keySplines="0.4 0 0.2 1;0.4 0 0.2 1;0.4 0 0.2 1;0.4 0 0.2 1"/><animate attributeName="fill" values="#3A4A66;#1F5082;#3A4A66;#1F5082;#3A4A66" keyTimes="0;0.22;0.5;0.78;1" dur="9.0s" repeatCount="indefinite"/></circle>
<circle r="5.2" fill="#1F5082" opacity="0.95" filter="url(#soft-glow)"><animate attributeName="cx" values="138.134;216.956;105.036;106.826;138.134" keyTimes="0;0.22;0.5;0.78;1" dur="9.0s" repeatCount="indefinite" calcMode="spline" keySplines="0.4 0 0.2 1;0.4 0 0.2 1;0.4 0 0.2 1;0.4 0 0.2 1"/><animate attributeName="cy" values="112.262;319.961;234.399;160.104;112.262" keyTimes="0;0.22;0.5;0.78;1" dur="9.0s" repeatCount="indefinite" calcMode="spline" keySplines="0.4 0 0.2 1;0.4 0 0.2 1;0.4 0 0.2 1;0.4 0 0.2 1"/><animate attributeName="fill" values="#3A4A66;#1F5082;#3A4A66;#1F5082;#3A4A66" keyTimes="0;0.22;0.5;0.78;1" dur="9.0s" repeatCount="indefinite"/></circle>
<circle r="5.2" fill="#1F5082" opacity="0.95" filter="url(#soft-glow)"><animate attributeName="cx" values="186.765;226.435;129.516;110.335;186.765" keyTimes="0;0.22;0.5;0.78;1" dur="9.0s" repeatCount="indefinite" calcMode="spline" keySplines="0.4 0 0.2 1;0.4 0 0.2 1;0.4 0 0.2 1;0.4 0 0.2 1"/><animate attributeName="cy" values="84.694;319.827;278.82;151.281;84.694" keyTimes="0;0.22;0.5;0.78;1" dur="9.0s" repeatCount="indefinite" calcMode="spline" keySplines="0.4 0 0.2 1;0.4 0 0.2 1;0.4 0 0.2 1;0.4 0 0.2 1"/><animate attributeName="fill" values="#3A4A66;#1F5082;#3A4A66;#1F5082;#3A4A66" keyTimes="0;0.22;0.5;0.78;1" dur="9.0s" repeatCount="indefinite"/></circle>
<circle r="5.2" fill="#1F5082" opacity="0.95" filter="url(#soft-glow)"><animate attributeName="cx" values="254.306;215.501;165.481;107.609;254.306" keyTimes="0;0.22;0.5;0.78;1" dur="9.0s" repeatCount="indefinite" calcMode="spline" keySplines="0.4 0 0.2 1;0.4 0 0.2 1;0.4 0 0.2 1;0.4 0 0.2 1"/><animate attributeName="cy" values="85.008;319.916;306.9;157.948;85.008" keyTimes="0;0.22;0.5;0.78;1" dur="9.0s" repeatCount="indefinite" calcMode="spline" keySplines="0.4 0 0.2 1;0.4 0 0.2 1;0.4 0 0.2 1;0.4 0 0.2 1"/><animate attributeName="fill" values="#3A4A66;#1F5082;#3A4A66;#1F5082;#3A4A66" keyTimes="0;0.22;0.5;0.78;1" dur="9.0s" repeatCount="indefinite"/></circle>
<circle r="5.2" fill="#1F5082" opacity="0.95" filter="url(#soft-glow)"><animate attributeName="cx" values="290.061;203.921;105.585;108.446;290.061" keyTimes="0;0.22;0.5;0.78;1" dur="9.0s" repeatCount="indefinite" calcMode="spline" keySplines="0.4 0 0.2 1;0.4 0 0.2 1;0.4 0 0.2 1;0.4 0 0.2 1"/><animate attributeName="cy" values="102.576;318.918;236.184;155.776;102.576" keyTimes="0;0.22;0.5;0.78;1" dur="9.0s" repeatCount="indefinite" calcMode="spline" keySplines="0.4 0 0.2 1;0.4 0 0.2 1;0.4 0 0.2 1;0.4 0 0.2 1"/><animate attributeName="fill" values="#3A4A66;#1F5082;#3A4A66;#1F5082;#3A4A66" keyTimes="0;0.22;0.5;0.78;1" dur="9.0s" repeatCount="indefinite"/></circle>
<circle r="5.2" fill="#1F5082" opacity="0.95" filter="url(#soft-glow)"><animate attributeName="cx" values="323.883;224.314;135.047;113.941;323.883" keyTimes="0;0.22;0.5;0.78;1" dur="9.0s" repeatCount="indefinite" calcMode="spline" keySplines="0.4 0 0.2 1;0.4 0 0.2 1;0.4 0 0.2 1;0.4 0 0.2 1"/><animate attributeName="cy" values="139.931;319.922;284.753;143.862;139.931" keyTimes="0;0.22;0.5;0.78;1" dur="9.0s" repeatCount="indefinite" calcMode="spline" keySplines="0.4 0 0.2 1;0.4 0 0.2 1;0.4 0 0.2 1;0.4 0 0.2 1"/><animate attributeName="fill" values="#3A4A66;#1F5082;#3A4A66;#1F5082;#3A4A66" keyTimes="0;0.22;0.5;0.78;1" dur="9.0s" repeatCount="indefinite"/></circle>
<line x1="220" y1="200" stroke="#E8C547" stroke-width="2.2" stroke-linecap="round" opacity="0.95" filter="url(#soft-glow)"><animate attributeName="x2" values="218.095;220.571;139.527;127.679;218.095" keyTimes="0;0.22;0.5;0.78;1" dur="9.0s" repeatCount="indefinite" calcMode="spline" keySplines="0.4 0 0.2 1;0.4 0 0.2 1;0.4 0 0.2 1;0.4 0 0.2 1"/><animate attributeName="y2" values="201.693;301.654;255.02;157.178;201.693" keyTimes="0;0.22;0.5;0.78;1" dur="9.0s" repeatCount="indefinite" calcMode="spline" keySplines="0.4 0 0.2 1;0.4 0 0.2 1;0.4 0 0.2 1;0.4 0 0.2 1"/></line>
<circle r="3.6" fill="#E8C547" filter="url(#soft-glow)"><animate attributeName="cx" values="218.095;220.571;139.527;127.679;218.095" keyTimes="0;0.22;0.5;0.78;1" dur="9.0s" repeatCount="indefinite" calcMode="spline" keySplines="0.4 0 0.2 1;0.4 0 0.2 1;0.4 0 0.2 1;0.4 0 0.2 1"/><animate attributeName="cy" values="201.693;301.654;255.02;157.178;201.693" keyTimes="0;0.22;0.5;0.78;1" dur="9.0s" repeatCount="indefinite" calcMode="spline" keySplines="0.4 0 0.2 1;0.4 0 0.2 1;0.4 0 0.2 1;0.4 0 0.2 1"/></circle>
<circle cx="220" cy="200" r="2.2" fill="#9AA3B2"/>
<text x="220" y="366" fill="#9AA3B2" font-size="11" text-anchor="middle" letter-spacing="2">PHASE SPACE · θ ∈ S¹</text>
<text x="220" y="384" fill="#E8EAED" font-size="12" text-anchor="middle" font-style="italic">R·e^{iψ} = (1/N) Σ e^{iθₖ}</text>
<line x1="420" y1="60" x2="420" y2="340" stroke="#16203A" stroke-width="1"/>
<line x1="500" y1="340" x2="1200" y2="340" stroke="#16203A" stroke-width="1"/>
<line x1="500" y1="60" x2="500" y2="340" stroke="#16203A" stroke-width="1"/>
<line x1="494" y1="340.0" x2="500" y2="340.0" stroke="#9AA3B2" stroke-width="1"/>
<text x="488" y="344.0" fill="#9AA3B2" font-size="11" text-anchor="end">0</text>
<line x1="494" y1="158.0" x2="500" y2="158.0" stroke="#E8C547" stroke-width="1"/>
<text x="488" y="162.0" fill="#E8C547" font-size="11" text-anchor="end">θ</text>
<line x1="494" y1="60.0" x2="500" y2="60.0" stroke="#9AA3B2" stroke-width="1"/>
<text x="488" y="64.0" fill="#9AA3B2" font-size="11" text-anchor="end">1</text>
<line x1="500" y1="158.0" x2="1200" y2="158.0" stroke="#E8C547" stroke-width="1" stroke-dasharray="4 5" opacity="0.55"/>
<text x="1194" y="152.0" fill="#E8C547" font-size="10.5" text-anchor="end" letter-spacing="1" opacity="0.85">GATE · θ = 0.65</text>
<path d="M 500 333.003 L 502.917 332.714 L 505.833 331.862 L 508.75 330.468 L 511.667 328.555 L 514.583 326.146 L 517.5 323.262 L 520.417 319.926 L 523.333 316.159 L 526.25 311.984 L 529.167 307.423 L 532.083 302.499 L 535 297.233 L 537.917 291.648 L 540.833 285.765 L 543.75 279.607 L 546.667 273.197 L 549.583 266.556 L 552.5 259.706 L 555.417 252.671 L 558.333 245.471 L 561.25 238.129 L 564.167 230.667 L 567.083 223.108 L 570 215.473 L 572.917 207.785 L 575.833 200.066 L 578.75 192.338 L 581.667 184.624 L 584.583 176.944 L 587.5 169.323 L 590.417 161.782 L 593.333 154.342 L 596.25 147.027 L 599.167 139.858 L 602.083 132.857 L 605 126.048 L 607.917 119.451 L 610.833 113.089 L 613.75 106.985 L 616.667 101.16 L 619.583 95.637 L 622.5 90.437 L 625.417 85.584 L 628.333 81.099 L 631.25 77.004 L 634.167 73.321 L 637.083 70.073 L 640 67.283 L 642.917 64.971 L 645.833 63.16 L 648.75 61.873 L 651.667 61.132 L 654.583 60.946 L 657.5 60.957 L 660.417 60.982 L 663.333 61.022 L 666.25 61.075 L 669.167 61.141 L 672.083 61.221 L 675 61.312 L 677.917 61.416 L 680.833 61.531 L 683.75 61.658 L 686.667 61.794 L 689.583 61.941 L 692.5 62.098 L 695.417 62.264 L 698.333 62.439 L 701.25 62.622 L 704.167 62.813 L 707.083 63.011 L 710 63.216 L 712.917 63.428 L 715.833 63.646 L 718.75 63.87 L 721.667 64.098 L 724.583 64.332 L 727.5 64.569 L 730.417 64.811 L 733.333 65.056 L 736.25 65.303 L 739.167 65.554 L 742.083 65.806 L 745 66.059 L 747.917 66.314 L 750.833 66.57 L 753.75 66.825 L 756.667 67.08 L 759.583 67.335 L 762.5 67.588 L 765.417 67.84 L 768.333 68.09 L 771.25 68.337 L 774.167 68.581 L 777.083 68.822 L 780 69.059 L 782.917 69.291 L 785.833 69.519 L 788.75 69.741 L 791.667 69.958 L 794.583 70.169 L 797.5 70.373 L 800.417 70.57 L 803.333 70.759 L 806.25 70.94 L 809.167 71.113 L 812.083 71.278 L 815 71.432 L 817.917 71.577 L 820.833 71.712 L 823.75 71.836 L 826.667 71.949 L 829.583 72.051 L 832.5 72.14 L 835.417 72.217 L 838.333 72.281 L 841.25 72.331 L 844.167 72.368 L 847.083 72.39 L 850 72.397 L 852.917 72.39 L 855.833 72.367 L 858.75 72.329 L 861.667 72.277 L 864.583 72.212 L 867.5 72.133 L 870.417 72.041 L 873.333 71.937 L 876.25 71.821 L 879.167 71.694 L 882.083 71.555 L 885 71.406 L 887.917 71.247 L 890.833 71.079 L 893.75 70.901 L 896.667 70.715 L 899.583 70.52 L 902.5 70.318 L 905.417 70.108 L 908.333 69.892 L 911.25 69.67 L 914.167 69.441 L 917.083 69.207 L 920 68.968 L 922.917 68.725 L 925.833 68.478 L 928.75 68.227 L 931.667 67.973 L 934.583 67.717 L 937.5 67.458 L 940.417 67.198 L 943.333 66.936 L 946.25 66.674 L 949.167 66.412 L 952.083 66.149 L 955 65.888 L 957.917 65.627 L 960.833 65.368 L 963.75 65.111 L 966.667 64.857 L 969.583 64.605 L 972.5 64.357 L 975.417 64.113 L 978.333 63.874 L 981.25 63.639 L 984.167 63.409 L 987.083 63.185 L 990 62.968 L 992.917 62.757 L 995.833 62.553 L 998.75 62.357 L 1001.667 62.169 L 1004.583 61.99 L 1007.5 61.819 L 1010.417 61.658 L 1013.333 61.507 L 1016.25 61.367 L 1019.167 61.237 L 1022.083 61.119 L 1025 61.012 L 1027.917 60.918 L 1030.833 60.836 L 1033.75 60.768 L 1036.667 60.714 L 1039.583 60.673 L 1042.5 60.647 L 1045.417 60.636 L 1048.333 60.822 L 1051.25 61.564 L 1054.167 62.853 L 1057.083 64.665 L 1060 66.98 L 1062.917 69.774 L 1065.833 73.025 L 1068.75 76.712 L 1071.667 80.811 L 1074.583 85.302 L 1077.5 90.161 L 1080.417 95.366 L 1083.333 100.896 L 1086.25 106.727 L 1089.167 112.839 L 1092.083 119.208 L 1095 125.812 L 1097.917 132.629 L 1100.833 139.638 L 1103.75 146.815 L 1106.667 154.138 L 1109.583 161.586 L 1112.5 169.137 L 1115.417 176.767 L 1118.333 184.454 L 1121.25 192.178 L 1124.167 199.914 L 1127.083 207.642 L 1130 215.339 L 1132.917 222.982 L 1135.833 230.55 L 1138.75 238.02 L 1141.667 245.371 L 1144.583 252.579 L 1147.5 259.623 L 1150.417 266.48 L 1153.333 273.129 L 1156.25 279.547 L 1159.167 285.711 L 1162.083 291.601 L 1165 297.192 L 1167.917 302.464 L 1170.833 307.394 L 1173.75 311.96 L 1176.667 316.14 L 1179.583 319.911 L 1182.5 323.251 L 1185.417 326.138 L 1188.333 328.55 L 1191.25 330.465 L 1194.167 331.86 L 1197.083 332.714 L 1200 333.003" fill="none" stroke="#8B3FBF" stroke-width="1.2" opacity="0.25"/>
<path d="M 500 333.003 L 502.917 332.714 L 505.833 331.862 L 508.75 330.468 L 511.667 328.555 L 514.583 326.146 L 517.5 323.262 L 520.417 319.926 L 523.333 316.159 L 526.25 311.984 L 529.167 307.423 L 532.083 302.499 L 535 297.233 L 537.917 291.648 L 540.833 285.765 L 543.75 279.607 L 546.667 273.197 L 549.583 266.556 L 552.5 259.706 L 555.417 252.671 L 558.333 245.471 L 561.25 238.129 L 564.167 230.667 L 567.083 223.108 L 570 215.473 L 572.917 207.785 L 575.833 200.066 L 578.75 192.338 L 581.667 184.624 L 584.583 176.944 L 587.5 169.323 L 590.417 161.782 L 593.333 154.342 L 596.25 147.027 L 599.167 139.858 L 602.083 132.857 L 605 126.048 L 607.917 119.451 L 610.833 113.089 L 613.75 106.985 L 616.667 101.16 L 619.583 95.637 L 622.5 90.437 L 625.417 85.584 L 628.333 81.099 L 631.25 77.004 L 634.167 73.321 L 637.083 70.073 L 640 67.283 L 642.917 64.971 L 645.833 63.16 L 648.75 61.873 L 651.667 61.132 L 654.583 60.946 L 657.5 60.957 L 660.417 60.982 L 663.333 61.022 L 666.25 61.075 L 669.167 61.141 L 672.083 61.221 L 675 61.312 L 677.917 61.416 L 680.833 61.531 L 683.75 61.658 L 686.667 61.794 L 689.583 61.941 L 692.5 62.098 L 695.417 62.264 L 698.333 62.439 L 701.25 62.622 L 704.167 62.813 L 707.083 63.011 L 710 63.216 L 712.917 63.428 L 715.833 63.646 L 718.75 63.87 L 721.667 64.098 L 724.583 64.332 L 727.5 64.569 L 730.417 64.811 L 733.333 65.056 L 736.25 65.303 L 739.167 65.554 L 742.083 65.806 L 745 66.059 L 747.917 66.314 L 750.833 66.57 L 753.75 66.825 L 756.667 67.08 L 759.583 67.335 L 762.5 67.588 L 765.417 67.84 L 768.333 68.09 L 771.25 68.337 L 774.167 68.581 L 777.083 68.822 L 780 69.059 L 782.917 69.291 L 785.833 69.519 L 788.75 69.741 L 791.667 69.958 L 794.583 70.169 L 797.5 70.373 L 800.417 70.57 L 803.333 70.759 L 806.25 70.94 L 809.167 71.113 L 812.083 71.278 L 815 71.432 L 817.917 71.577 L 820.833 71.712 L 823.75 71.836 L 826.667 71.949 L 829.583 72.051 L 832.5 72.14 L 835.417 72.217 L 838.333 72.281 L 841.25 72.331 L 844.167 72.368 L 847.083 72.39 L 850 72.397 L 852.917 72.39 L 855.833 72.367 L 858.75 72.329 L 861.667 72.277 L 864.583 72.212 L 867.5 72.133 L 870.417 72.041 L 873.333 71.937 L 876.25 71.821 L 879.167 71.694 L 882.083 71.555 L 885 71.406 L 887.917 71.247 L 890.833 71.079 L 893.75 70.901 L 896.667 70.715 L 899.583 70.52 L 902.5 70.318 L 905.417 70.108 L 908.333 69.892 L 911.25 69.67 L 914.167 69.441 L 917.083 69.207 L 920 68.968 L 922.917 68.725 L 925.833 68.478 L 928.75 68.227 L 931.667 67.973 L 934.583 67.717 L 937.5 67.458 L 940.417 67.198 L 943.333 66.936 L 946.25 66.674 L 949.167 66.412 L 952.083 66.149 L 955 65.888 L 957.917 65.627 L 960.833 65.368 L 963.75 65.111 L 966.667 64.857 L 969.583 64.605 L 972.5 64.357 L 975.417 64.113 L 978.333 63.874 L 981.25 63.639 L 984.167 63.409 L 987.083 63.185 L 990 62.968 L 992.917 62.757 L 995.833 62.553 L 998.75 62.357 L 1001.667 62.169 L 1004.583 61.99 L 1007.5 61.819 L 1010.417 61.658 L 1013.333 61.507 L 1016.25 61.367 L 1019.167 61.237 L 1022.083 61.119 L 1025 61.012 L 1027.917 60.918 L 1030.833 60.836 L 1033.75 60.768 L 1036.667 60.714 L 1039.583 60.673 L 1042.5 60.647 L 1045.417 60.636 L 1048.333 60.822 L 1051.25 61.564 L 1054.167 62.853 L 1057.083 64.665 L 1060 66.98 L 1062.917 69.774 L 1065.833 73.025 L 1068.75 76.712 L 1071.667 80.811 L 1074.583 85.302 L 1077.5 90.161 L 1080.417 95.366 L 1083.333 100.896 L 1086.25 106.727 L 1089.167 112.839 L 1092.083 119.208 L 1095 125.812 L 1097.917 132.629 L 1100.833 139.638 L 1103.75 146.815 L 1106.667 154.138 L 1109.583 161.586 L 1112.5 169.137 L 1115.417 176.767 L 1118.333 184.454 L 1121.25 192.178 L 1124.167 199.914 L 1127.083 207.642 L 1130 215.339 L 1132.917 222.982 L 1135.833 230.55 L 1138.75 238.02 L 1141.667 245.371 L 1144.583 252.579 L 1147.5 259.623 L 1150.417 266.48 L 1153.333 273.129 L 1156.25 279.547 L 1159.167 285.711 L 1162.083 291.601 L 1165 297.192 L 1167.917 302.464 L 1170.833 307.394 L 1173.75 311.96 L 1176.667 316.14 L 1179.583 319.911 L 1182.5 323.251 L 1185.417 326.138 L 1188.333 328.55 L 1191.25 330.465 L 1194.167 331.86 L 1197.083 332.714 L 1200 333.003" fill="none" stroke="url(#trace-grad)" stroke-width="2.6" stroke-linecap="round" filter="url(#soft-glow)" stroke-dasharray="1036.26" stroke-dashoffset="1036.26"><animate attributeName="stroke-dashoffset" values="1036.26;0;207.252;0;1036.26" keyTimes="0;0.22;0.5;0.78;1" dur="9.0s" repeatCount="indefinite" calcMode="linear"/></path>
<circle r="4.2" fill="#E8C547" filter="url(#soft-glow)"><animate attributeName="cx" values="500;502.917;505.833;508.75;511.667;514.583;517.5;520.417;523.333;526.25;529.167;532.083;535;537.917;540.833;543.75;546.667;549.583;552.5;555.417;558.333;561.25;564.167;567.083;570;572.917;575.833;578.75;581.667;584.583;587.5;590.417;593.333;596.25;599.167;602.083;605;607.917;610.833;613.75;616.667;619.583;622.5;625.417;628.333;631.25;634.167;637.083;640;642.917;645.833;648.75;651.667;654.583;657.5;660.417;663.333;666.25;669.167;672.083;675;677.917;680.833;683.75;686.667;689.583;692.5;695.417;698.333;701.25;704.167;707.083;710;712.917;715.833;718.75;721.667;724.583;727.5;730.417;733.333;736.25;739.167;742.083;745;747.917;750.833;753.75;756.667;759.583;762.5;765.417;768.333;771.25;774.167;777.083;780;782.917;785.833;788.75;791.667;794.583;797.5;800.417;803.333;806.25;809.167;812.083;815;817.917;820.833;823.75;826.667;829.583;832.5;835.417;838.333;841.25;844.167;847.083;850;852.917;855.833;858.75;861.667;864.583;867.5;870.417;873.333;876.25;879.167;882.083;885;887.917;890.833;893.75;896.667;899.583;902.5;905.417;908.333;911.25;914.167;917.083;920;922.917;925.833;928.75;931.667;934.583;937.5;940.417;943.333;946.25;949.167;952.083;955;957.917;960.833;963.75;966.667;969.583;972.5;975.417;978.333;981.25;984.167;987.083;990;992.917;995.833;998.75;1001.667;1004.583;1007.5;1010.417;1013.333;1016.25;1019.167;1022.083;1025;1027.917;1030.833;1033.75;1036.667;1039.583;1042.5;1045.417;1048.333;1051.25;1054.167;1057.083;1060;1062.917;1065.833;1068.75;1071.667;1074.583;1077.5;1080.417;1083.333;1086.25;1089.167;1092.083;1095;1097.917;1100.833;1103.75;1106.667;1109.583;1112.5;1115.417;1118.333;1121.25;1124.167;1127.083;1130;1132.917;1135.833;1138.75;1141.667;1144.583;1147.5;1150.417;1153.333;1156.25;1159.167;1162.083;1165;1167.917;1170.833;1173.75;1176.667;1179.583;1182.5;1185.417;1188.333;1191.25;1194.167;1197.083;1200" dur="9.0s" repeatCount="indefinite" calcMode="linear"/><animate attributeName="cy" values="333.003;332.714;331.862;330.468;328.555;326.146;323.262;319.926;316.159;311.984;307.423;302.499;297.233;291.648;285.765;279.607;273.197;266.556;259.706;252.671;245.471;238.129;230.667;223.108;215.473;207.785;200.066;192.338;184.624;176.944;169.323;161.782;154.342;147.027;139.858;132.857;126.048;119.451;113.089;106.985;101.16;95.637;90.437;85.584;81.099;77.004;73.321;70.073;67.283;64.971;63.16;61.873;61.132;60.946;60.957;60.982;61.022;61.075;61.141;61.221;61.312;61.416;61.531;61.658;61.794;61.941;62.098;62.264;62.439;62.622;62.813;63.011;63.216;63.428;63.646;63.87;64.098;64.332;64.569;64.811;65.056;65.303;65.554;65.806;66.059;66.314;66.57;66.825;67.08;67.335;67.588;67.84;68.09;68.337;68.581;68.822;69.059;69.291;69.519;69.741;69.958;70.169;70.373;70.57;70.759;70.94;71.113;71.278;71.432;71.577;71.712;71.836;71.949;72.051;72.14;72.217;72.281;72.331;72.368;72.39;72.397;72.39;72.367;72.329;72.277;72.212;72.133;72.041;71.937;71.821;71.694;71.555;71.406;71.247;71.079;70.901;70.715;70.52;70.318;70.108;69.892;69.67;69.441;69.207;68.968;68.725;68.478;68.227;67.973;67.717;67.458;67.198;66.936;66.674;66.412;66.149;65.888;65.627;65.368;65.111;64.857;64.605;64.357;64.113;63.874;63.639;63.409;63.185;62.968;62.757;62.553;62.357;62.169;61.99;61.819;61.658;61.507;61.367;61.237;61.119;61.012;60.918;60.836;60.768;60.714;60.673;60.647;60.636;60.822;61.564;62.853;64.665;66.98;69.774;73.025;76.712;80.811;85.302;90.161;95.366;100.896;106.727;112.839;119.208;125.812;132.629;139.638;146.815;154.138;161.586;169.137;176.767;184.454;192.178;199.914;207.642;215.339;222.982;230.55;238.02;245.371;252.579;259.623;266.48;273.129;279.547;285.711;291.601;297.192;302.464;307.394;311.96;316.14;319.911;323.251;326.138;328.55;330.465;331.86;332.714;333.003" dur="9.0s" repeatCount="indefinite" calcMode="linear"/><animate attributeName="r" values="3.4;5.2;3.6;5.2;3.4" keyTimes="0;0.22;0.5;0.78;1" dur="9.0s" repeatCount="indefinite"/></circle>
<text x="1200" y="46" fill="#00C853" font-size="13" font-weight="700" text-anchor="end" letter-spacing="3">READY<animate attributeName="opacity" values="0;1;1;1;0" keyTimes="0;0.22;0.5;0.78;1" dur="9.0s" repeatCount="indefinite"/></text>
<text x="1200" y="46" fill="#8B3FBF" font-size="13" font-weight="700" text-anchor="end" letter-spacing="3">BLOCKED<animate attributeName="opacity" values="1;0;0;0;1" keyTimes="0;0.22;0.5;0.78;1" dur="9.0s" repeatCount="indefinite"/></text>
<text x="850.0" y="364" fill="#9AA3B2" font-size="11" text-anchor="middle" letter-spacing="2">TIME · t</text>
<text x="466" y="200.0" fill="#9AA3B2" font-size="11" text-anchor="middle" letter-spacing="2" transform="rotate(-90 466 200.0)">ORDER · R(t)</text>
<text x="60" y="384" fill="#9AA3B2" font-size="11" letter-spacing="2">PHASE SYNCHRONIZATION AS EXECUTION GATE</text>
<text x="1220" y="384" fill="#9AA3B2" font-size="11" text-anchor="end" letter-spacing="2">COUPLED · BRAIN ⇌ MARKET</text>
</svg>